<?xml version="1.0" encoding="utf-8"?>
<svg width="73" height="52" viewBox="0 0 73 52" xmlns="http://www.w3.org/2000/svg">
  <path id="path1" stroke="none" d="M 7.76534 23.382601 L 10.4107 22.073799 L 14.592 15.791901 L 15.872 15.268501 L 17.2374 21.6376 L 15.4454 21.8993 L 14.08 19.281898 L 13.056 23.382601 L 17.578699 23.382601 L 22.271999 24.604 L 24.149401 23.382601 L 27.3067 26.698 L 28.672001 20.590599 L 30.890699 22.8591 L 32.256001 20.9396 L 34.474701 20.328899 L 37.7174 17.2752 L 38.229401 15.791901 L 40.874699 16.228203 L 41.9841 17.711399 L 40.0214 21.8993 L 44.885399 19.369102 L 44.885399 18.147598 L 46.762699 17.711399 L 48.810699 19.805401 L 50.8587 17.2752 L 50.8587 15.530201 L 54.186699 13.1745 L 55.552101 11.167801 L 57.685398 11.167801 L 61.440102 3.402679 L 64.6828 0 L 65.877403 1.91946 L 64.000099 4.362419 L 64.6828 5.932892 L 66.4748 6.281879 L 67.9254 12.7383 L 67.9254 18.147598 L 70.485397 21.7248 L 71.765404 26.698 L 67.328102 23.8188 L 65.365402 15.530201 L 64.1707 15.791901 L 64.000099 21.375799 L 60.757401 26.698 L 59.818699 34.812099 L 62.037399 35.335602 L 62.976101 34.201302 L 65.109398 36.644299 L 66.730698 43.973202 L 66.560097 48.684601 L 64.5121 48.684601 L 63.744099 42.053699 L 62.2934 44.060398 L 59.136101 43.3624 L 56.576099 41.181198 L 53.674702 42.228199 L 53.845402 46.939602 L 51.541401 47.550301 L 48.128101 50.167801 L 44.032101 49.644299 L 42.410702 48.684601 L 39.8507 49.1208 L 40.704102 50.167801 L 38.656101 51.389301 L 37.034698 50.604 L 33.9627 52 L 29.2694 49.644299 L 27.4774 45.456402 L 25.941401 45.630901 L 24.149401 44.147701 L 24.063999 43.013401 L 18.346701 42.402699 L 17.408001 45.543598 L 13.824 43.885899 L 12.032 40.832199 L 8.19201 40.832199 L 7.76534 45.718102 L 5.54667 46.4161 L 4.43734 50.865799 L 3.584 50.080502 L 0 40.744999 L 4.26667 38.651001 L 3.584 34.550301 L 2.90134 30.3624 L 4.77867 27.6577 L 4.18134 26 L 6.74134 23.208099 L 7.76534 23.382601 Z M 64.5121 33.677898 L 68.437401 39.610699 L 69.7174 39.0872 L 68.0961 36.644299 L 64.5121 32.805401 L 64.5121 33.677898 Z M 24.405399 21.6376 L 24.405399 19.892601 L 27.392 17.711399 L 29.952 16.402702 L 26.965401 16.402702 L 24.32 17.973198 L 22.6987 19.456398 L 22.6987 21.6376 L 24.405399 21.6376 Z" style=""/>
</svg>